<svg width="94" height="88" fill="none" xmlns="http://www.w3.org/2000/svg"><path fill-rule="evenodd" clip-rule="evenodd" d="M9.825 37.338l4.306-.196c1.904 0 3.02.196 4.894.196.282-3.405 2.372-8.694 3.801-11.11l2.994-4.46c3.04-4.11 7.967-7.68 12.587-9.758 8.727-3.927 18.79-3.61 27.428.365 6.838 3.146 12.706 9.059 15.857 15.904 5.175 11.24 3.905 25.029-3.805 34.525-.566.697-.83 1.047-1.46 1.678-1.356 1.36-.328.585-2.442 2.459-2.21 1.96-3.739 3.268-6.606 4.763-.923.481-3.591 1.868-4.7 1.96v9.819c.345-.167 4.516-1.492 6.456-2.36 3.075-1.373 5.582-2.968 8.198-4.933 3.487-2.616 3.986-3.439 6.829-6.501C89.588 63.842 94 52.36 94 44.21c0-9.244-.747-11.895-3.943-19.806-1.01-2.499-4.143-7.313-5.992-9.305-.493-.532-.626-.832-1.172-1.377-.475-.474-.803-.8-1.275-1.274-2.1-2.106-3.022-2.858-5.486-4.708-3.666-2.751-9.434-5.332-13.921-6.457-6.72-1.687-13.613-1.682-20.36-.155C36.171 2.415 31.636 4.777 26.972 8c-.561.388-.936.69-1.442 1.106-3.255 2.676-4.667 4.129-7.227 7.281-1.84 2.266-4.33 6.524-5.46 9.25a48.845 48.845 0 00-1.33 3.575c-.692 2.072-1.688 5.55-1.688 8.125z" fill="#004D40"/><path fill-rule="evenodd" clip-rule="evenodd" d="M46.43 44.603c0 3.659 2.182 4.055 5.527 6.828l8.877 6.805c2.3 1.802 2.769 2.23 4.927.064 2.27-2.277 1.61-2.685.106-4.72l-7.752-9.896c-1.388-1.674-.744-2.108-1.256-6.007L55.24 18.095c-.193-6.191-.627-5.498-4.698-5.498-1.882 0-1.759 1.998-1.85 2.66-.411 3-.597 9.2-1.033 12.514l-.64 8.39c-.017 1.27-.289 2.936-.38 4.136-.117 1.558-.209 2.66-.209 4.306zm-46.394.59c0 .797-.088 1.204.733 2.015.323.319.851.633 1.288.867 5.965 3.193 21.11 3.017 25.335-.773 1.096-.983 1.155-2.297.101-3.338-4.094-4.049-22.047-4.2-26.623-.095-.254.228-.834.951-.834 1.324zm15.661 15.708c0 .798-.088 1.205.732 2.015 4.095 4.049 22.048 4.2 26.623.095 1.097-.983 1.155-2.297.102-3.339-.937-.925-3.172-1.735-4.397-2.07-5.656-1.547-18.19-1.646-22.226 1.976-.255.227-.834.951-.834 1.323zM31.359 76.61c0 1.461.4 2.015 2.02 2.882 1.008.54 2.013.903 3.108 1.203 5.135 1.405 12.796 1.405 17.932 0 1.05-.287 2.058-.655 2.979-1.136 6.308-3.29-1.858-7.269-10.379-7.269-4.188 0-11.677.171-14.826 2.996-.254.228-.834.951-.834 1.324z" fill="#004D40"/><path fill-rule="evenodd" clip-rule="evenodd" d="M44.083 88c4.447 0 7.341.006 11.528-1.397 4.748-1.591 3.937-2.908 3.937-6.065-.031.035-.071.049-.083.113l-.841 1.12c-2.485 2.308-9.78 3.087-13.17 3.087-3.716 0-11.538-.547-13.85-3.977-.233-.344-.022-.086-.245-.343 0 .788-.015 1.583-.013 2.369.006 2.142 1.723 2.95 3.95 3.696 2.498.837 5.492 1.396 8.787 1.396zM12.76 56.582c3.863 0 1.498-.082 5.423-1.63 6.173-2.434 9.842-.4 10.047-3.079.061-.797-.005-1.919-.005-2.753-.03.035-.07.05-.082.114-.011.063-.066.09-.082.114-3.426 5.078-17.423 4.315-22.195 3.154-2.314-.563-4.353-1.21-5.585-3.038-.232-.344-.021-.086-.244-.343 0 3.283-.677 4.518 3.937 6.065 2.498.838 5.491 1.396 8.787 1.396zM28.422 72.29c3.862 0 1.497-.082 5.422-1.63 6.174-2.433 9.843-.398 10.047-3.077.061-.799-.004-1.92-.004-2.754-.031.035-.071.05-.083.114-.287 1.565-4.351 2.929-5.746 3.268-1.21.295-2.394.417-3.871.633-3.984.58-9.07.241-12.66-.633-1.01-.245-2.492-.726-3.356-1.15-.817-.401-1.496-.815-1.999-1.53l-.474-.702c0 3.284-.678 4.519 3.936 6.066 2.498.837 5.491 1.396 8.788 1.396zm-15.856-9.425l.196-3.338c-2.998 0-10.335-.702-12.25-3.422l-.474-.701c0 3.669-.445 4.41 3.942 6.06 1.961.737 5.93 1.401 8.586 1.401zm15.659 15.709l.196-3.338c-2.998 0-10.335-.702-12.25-3.421l-.474-.703c0 3.67-.445 4.41 3.942 6.06 1.961.738 5.93 1.402 8.586 1.402zm-15.66 3.142v-3.338c-3.074 0-9.28-.73-11.603-2.89-.507-.472-.576-.83-.925-1.234 0 1.735-.27 3.335.646 4.262.291.294 1.135.862 1.5 1.047 2.598 1.333 7.115 2.153 10.382 2.153zm15.662 3.142V81.52c-2.961 0-5-.314-7.596-1.02-1.139-.31-3.132-1.07-4.01-1.868l-.678-.89c-.233-.347-.022-.088-.244-.345 0 3.67-.445 4.41 3.942 6.06 1.961.737 5.93 1.402 8.586 1.402zm-15.661-9.426v-3.338c-3.074 0-9.28-.73-11.604-2.89-.507-.472-.576-.83-.925-1.234 0 3.159-.544 4.563 3.938 6.066 2.181.731 5.739 1.396 8.591 1.396zm-.001-6.282v-3.34C9.14 65.81 2.4 65.175.281 62.032c-.232-.346-.02-.087-.244-.344 0 1.735-.27 3.335.646 4.262 2.218 2.245 8.862 3.2 11.882 3.2z" fill="#004D40"/></svg>