<svg width="25" height="25" fill="none" xmlns="http://www.w3.org/2000/svg"><path d="M20.5 16.5c0 .35-.099.676-.257.962l-5.052-5.652 4.997-4.372c.195.308.312.67.312 1.062v8zm-8-3.664l6.953-6.084A1.975 1.975 0 0018.5 6.5h-12c-.347 0-.669.096-.953.252l6.953 6.084zm1.938-.368l-1.61 1.41a.5.5 0 01-.657 0l-1.61-1.41-5.116 5.724c.307.193.666.308 1.055.308h12c.388 0 .748-.115 1.055-.308l-5.117-5.724zm-9.627-5.03c-.194.308-.311.67-.311 1.062v8c0 .35.098.676.257.962l5.05-5.653-4.996-4.371z" fill="#929AA2"/></svg>